<svg viewBox="0 0 512 512" xmlns="http://www.w3.org/2000/svg" xmlns:xlink="http://www.w3.org/1999/xlink" overflow="hidden"><path d="M352 256C352 278.2 350.8 299.6 348.7 320L163.3 320C161.2 299.6 159.1 278.2 159.1 256 159.1 233.8 161.2 212.4 163.3 192L348.7 192C350.8 212.4 352 233.8 352 256ZM503.9 192C509.2 212.5 512 233.9 512 256 512 278.1 509.2 299.5 503.9 320L380.8 320C382.9 299.4 384 277.1 384 256 384 234 382.9 212.6 380.8 192L503.9 192ZM493.4 160 376.7 160C366.7 96.14 346.9 42.62 321.4 8.442 399.8 29.09 463.4 85.94 493.4 160ZM344.3 160 167.7 160C173.8 123.6 183.2 91.38 194.7 65.35 205.2 41.74 216.9 24.61 228.2 13.81 239.4 3.178 248.7 0 256 0 263.3 0 272.6 3.178 283.8 13.81 295.1 24.61 306.8 41.74 317.3 65.35 328.8 91.38 338.2 123.6 344.3 160L344.3 160ZM18.61 160C48.59 85.94 112.2 29.09 190.6 8.442 165.1 42.62 145.3 96.14 135.3 160L18.61 160ZM131.2 192C129.1 212.6 127.1 234 127.1 256 127.1 277.1 129.1 299.4 131.2 320L8.065 320C2.8 299.5 0 278.1 0 256 0 233.9 2.8 212.5 8.065 192L131.2 192ZM194.7 446.6C183.2 420.6 173.8 388.4 167.7 352L344.3 352C338.2 388.4 328.8 420.6 317.3 446.6 306.8 470.3 295.1 487.4 283.8 498.2 272.6 508.8 263.3 512 255.1 512 248.7 512 239.4 508.8 228.2 498.2 216.9 487.4 205.2 470.3 194.7 446.6L194.7 446.6ZM190.6 503.6C112.2 482.9 48.59 426.1 18.61 352L135.3 352C145.3 415.9 165.1 469.4 190.6 503.6L190.6 503.6ZM321.4 503.6C346.9 469.4 366.7 415.9 376.7 352L493.4 352C463.4 426.1 399.8 482.9 321.4 503.6L321.4 503.6Z" fill="#415A76"/></svg>